<svg width="317" height="138" viewBox="0 0 317 138" fill="none" xmlns="http://www.w3.org/2000/svg">
<path d="M308.927 79.9816L314.231 74.7483L315.41 73.5853L313.902 71.775L311.223 71.7804C300.843 80.7547 295.66 83.9988 287.855 86.2625C269.728 90.5764 260.962 91.7415 246.54 92.7297L244.745 91.8629L235.967 78.099L233.233 72.882C231.341 69.8548 230.582 68.5197 228.69 65.4926C227.701 64.023 226.756 62.7498 222.66 58.2513L215.143 51.1581C214.304 50.3087 214.488 50.3596 209.134 45.8752C205.909 44.0365 204.729 43.7439 202.857 43.4943L198.087 42.9237C198.087 42.9237 192.662 43.5281 191.591 48.0145C189.665 51.1462 190.481 54.122 192.906 59.9076C194.534 61.7571 194.251 62.8245 198.936 67.1489C201.469 69.9531 203.854 71.2594 207.043 73.6606L207.38 73.9188C212.557 77.8806 215.562 80.1802 222.33 83.6394C229.335 87.9657 233.581 90.3483 242.093 94.4796C241.257 96.2861 240.561 97.0146 238.248 96.9536C238.248 96.9536 206.069 94.4078 202.786 93.6891C199.504 92.9704 194.365 85.5097 194.365 85.5097L190.726 79.2065L181.071 66.9676L171.437 56.6871L160.61 46.264L150.709 38.8855C147.377 37.6075 145.474 36.9816 141.464 37.4536C138.899 38.3734 138.058 39.3102 137.339 41.524C137.245 46.2763 136.533 48.5345 140.765 55.9516C145.528 63.0887 148.688 66.4494 154.922 71.663C164.929 78.3718 170.675 81.8326 181.283 87.2046C187.943 90.3263 188.407 90.0783 197.146 95.2963L195.077 96.6787C192.7 97.8745 191.12 97.9309 187.936 97.1284C178.626 96.1714 173.341 95.5036 162.877 92.1744C156.968 90.6231 153.803 89.9264 148.253 88.795C143.811 83.9202 141.777 79.7839 139.119 69.4466L136.687 64.5916C134.42 58.9993 132.788 56.0988 129.698 51.0417C123.818 42.7786 120.422 38.1702 112.512 30.404C106.887 26.2649 103.707 24.4254 97.8618 24.4134C96.4487 24.8315 95.7184 25.4229 94.6203 27.6115C94.5297 31.5784 94.8536 33.6942 96.2097 37.2555C97.349 42.1923 98.4546 44.7696 100.8 49.2146C105.929 56.3631 109.012 60.279 115.869 66.665L119.775 70.0662C126.484 75.0684 130.184 78.0318 136.59 83.8138L140.811 88.8827L139.927 89.7549C136.393 89.8655 134.82 90.9911 128.298 88.0377C124.354 87.2319 121.963 85.8781 116.635 83.0564C114.315 82.7252 112.916 82.0918 110.359 80.6755L103.177 77.2084L98.3805 74.0267L96.2699 71.4922C93.5221 70.3995 90.3476 59.2792 85.6014 47.7222L84.0734 43.9535L82.8606 41.8524C81.6272 40.1661 81.7007 38.9357 79.832 36.9262L73.1785 27.0023C69.4995 21.7512 67.0577 18.7512 61.7215 13.2438C62.0501 12.5767 54.9201 9.00585 53.3545 10.2869C51.789 11.568 50.9971 12.6128 50.9971 12.6128C50.9971 12.6128 50.1267 14.7907 50.1472 16.7491C50.1677 18.7075 51.3737 20.1558 51.3737 20.1558C51.9433 23.4296 52.6595 25.0961 54.135 27.984C55.6858 30.7815 56.6221 32.405 59.281 36.0975C63.8175 42.1381 66.4077 45.5385 72.547 52.0284L74.0408 52.5331L83.079 62.7422L86.3819 65.4193C88.1084 67.4178 89.11 68.5941 91.2059 71.2123L90.9249 72.8087C88.4833 72.3125 87.0368 71.9784 82.8594 70.2138L81.0504 68.0414C79.0172 67.2269 77.757 66.713 75.3697 65.7318C74.3818 65.0636 72.6131 63.8661 69.9632 61.1731C65.2463 59.0083 64.3845 58.0139 60.9728 55.5336L56.1624 51.0462L54.9359 47.6395C52.9213 44.3308 52.6728 43.6595 43.1433 30.255C38.0782 24.9481 35.0847 21.9482 29.6031 16.5733C19.3962 7.95481 13.6125 2.70366 4.43402 1.17439C1.97936 2.5884 1.37467 3.52698 0.904751 5.31608C0.856798 11.6572 1.70968 15.2719 6.13947 21.9161C9.75866 27.1284 12.1787 29.9727 16.9935 34.9504C20.6023 38.1662 22.793 39.884 27.1967 42.691L53.8186 54.6777C59.2725 57.5256 62.2429 59.2958 66.4271 64.662C59.0813 61.6822 54.7543 60.6066 47.0138 58.7536C47.0138 58.7536 27.9294 55.8184 24.0781 57.6396C20.2269 59.4608 21.7112 59.4565 19.6375 60.0423C15.6408 64.7033 12.3284 66.8018 15.9023 72.9612C17.1204 74.8982 21.905 77.5913 21.905 77.5913C24.0809 77.4941 25.766 77.6834 30.553 78.9519C34.5626 80.0427 38.0719 80.2228 46.3414 79.8628C50.9523 79.8191 55.7725 78.8566 68.0301 75.6116C69.6931 74.4448 70.724 73.6603 73.9304 70.4496C75.4675 68.943 76.1406 68.7863 76.8379 70.3525C90.607 75.3177 97.9193 78.2751 108.544 84.5775C111.096 85.8536 110.77 86.0137 109.83 86.4765L109.824 86.4795L100.6 87.006C89.8221 87.2771 84.4675 87.1935 72.655 90.8347C68.3343 93.0199 66.0596 94.6717 62.6224 99.4143C61.8445 102.453 61.6315 104.232 65.6988 108.91C69.7951 112.323 72.7532 113.68 80.932 113.667C86.1459 113.594 89.628 113.042 96.981 111.023C103.479 107.967 108.24 105.85 112.084 103.376C115.929 100.902 123.282 92.3275 125.064 91.8886C126.846 91.4498 132.225 93.3973 132.225 93.3973L149.802 94.5222C155.174 95.8169 157.835 95.4868 162.931 97.3969L166.705 98.0611C165.691 98.29 152.465 102.877 150.69 103.969C148.915 105.061 145.772 107.732 145.772 107.732C141.648 110.324 134.259 117.112 133.101 120.234C131.943 123.355 131.12 130.103 132.922 131.622C134.724 133.142 138.63 136.543 141.31 136.537C143.989 136.532 162.656 128.007 167.377 124.008C172.099 120.009 178.767 112.035 189.478 102.203C189.478 102.203 190.355 100.678 192.74 100.963C195.125 101.248 196.009 100.376 196.009 100.376C198.194 98.5899 200.924 98.3477 204.91 97.5291C208.812 97.6269 211.078 97.9206 215.347 99.1037C216.623 99.5871 216.798 100.058 215.669 101.424C206.752 105.891 197.511 109.454 191.999 115.544C186.487 121.634 186.971 122.991 186.147 125.276C186.645 127.781 187.108 129.202 190.087 131.941C194.284 133.634 196.847 134.119 201.722 134.311C209.577 131.88 213.483 129.073 220.369 123.828C230.478 114.166 236.436 107.511 236.562 106.532C236.689 105.552 238.303 102.176 239.187 101.304C240.071 100.432 240.295 100.092 241.263 100.574L247.177 96.7178C258.169 96.6222 263.682 94.8836 274.232 93.1086L288.794 90.6128C296.395 86.8556 300.843 84.4679 308.927 79.9816Z" fill="#56BD47" stroke="black"/>
</svg>
